<?xml version="1.0" encoding="UTF-8" standalone="no"?>
<!-- Created with Inkscape (http://www.inkscape.org/) -->

<svg
   width="210mm"
   height="297mm"
   viewBox="0 0 210 297"
   version="1.1"
   id="svg1"
   inkscape:version="1.3.2 (091e20e, 2023-11-25, custom)"
   sodipodi:docname="Alaska.svg"
   xmlns:inkscape="http://www.inkscape.org/namespaces/inkscape"
   xmlns:sodipodi="http://sodipodi.sourceforge.net/DTD/sodipodi-0.dtd"
   xmlns="http://www.w3.org/2000/svg"
   xmlns:svg="http://www.w3.org/2000/svg">
  <sodipodi:namedview
     id="namedview1"
     pagecolor="#505050"
     bordercolor="#ffffff"
     borderopacity="1"
     inkscape:showpageshadow="0"
     inkscape:pageopacity="0"
     inkscape:pagecheckerboard="1"
     inkscape:deskcolor="#505050"
     inkscape:document-units="mm"
     inkscape:zoom="0.52738496"
     inkscape:cx="396.29496"
     inkscape:cy="560.31177"
     inkscape:window-width="1427"
     inkscape:window-height="817"
     inkscape:window-x="49"
     inkscape:window-y="49"
     inkscape:window-maximized="0"
     inkscape:current-layer="layer1" />
  <defs
     id="defs1" />
  <g
     inkscape:label="Layer 1"
     inkscape:groupmode="layer"
     id="layer1">
    <g
       id="g70"
       transform="matrix(0.26458333,0,0,0.26458333,78.874873,29.734535)">
      <path
         style="fill:none;stroke:#000000;stroke-opacity:1"
         d="m 128.77381,492.38954 v -80.44309 l -9.40665,-4.21678 -2.27057,1.29747 -9.73102,-1.29747 -3.89241,-4.54114 -4.541139,2.59494 -6.162978,-5.51424 -2.594938,2.59494 c 0,0 1.297469,-5.18988 -0.648735,-4.54115 -1.946204,0.64874 -1.946204,0.64874 -1.946204,0.64874 l 0.973102,4.54114 -2.919305,-1.29747 0.973102,-5.51424 c 0,0 1.297469,-4.21678 -0.973102,-0.64874 -2.270571,3.56804 -2.270571,3.56804 -2.270571,3.56804 l -4.86551,-0.32436 -1.946203,-0.64874 -2.270571,3.56804 0.648734,2.91931 c 0,0 3.243673,-8.43355 -4.865509,-3.24368 -8.109182,5.18988 -8.109182,5.18988 -8.109182,5.18988 l -1.621836,4.54114 c 0,0 -2.919306,-4.86551 -7.784815,0 -4.865509,4.86551 -4.865509,4.86551 -4.865509,4.86551 l 6.487345,8.75792 -1.621836,3.24367 c 0,0 -0.324367,2.27057 3.243673,2.27057 3.56804,0 3.56804,0 3.56804,0 0,0 -6.162979,2.59494 -0.973102,3.24367 5.189876,0.64874 5.189876,0.64874 5.189876,0.64874 l -0.648734,1.62184 -5.838611,0.64873 -0.324367,0.64873 -8.109183,-2.9193 1.29747,-2.27057 c 0,0 -6.811713,-3.56804 -6.811713,-0.9731 0,2.59493 0,2.59493 0,2.59493 l -9.731019,1.62184 1.297469,2.27057 4.541142,3.89241 -4.865509,-0.9731 c 0,0 -4.541142,2.9193 1.621836,5.83861 6.162979,2.9193 6.162979,3.24367 6.162979,3.24367 0,0 -0.973102,-5.18988 2.594938,-1.62184 3.56804,3.56805 3.56804,3.56805 3.56804,3.56805 v -4.54115 c 0,0 1.946204,4.54115 3.892408,2.27057 1.946203,-2.27057 1.946203,-2.27057 1.946203,-2.27057 0,0 3.243673,1.94621 0.648735,3.89241 -2.594938,1.9462 -2.594938,1.62184 -2.594938,1.62184 0,0 2.919305,2.27057 0.324367,4.21677 -2.594938,1.94621 -2.594938,1.94621 -2.594938,1.94621 l -5.838612,0.9731 -4.865509,1.62183 0.324368,-2.9193 h -3.568041 l -0.973101,5.83861 h -5.514244 l -0.324368,3.89241 -4.541141,0.32436 8.757916,10.37976 -4.216775,-0.64874 -1.946203,1.29747 2.919305,6.81171 5.189877,0.97311 c 0,0 0.648734,-6.48735 1.946204,-4.54115 1.297469,1.94621 1.297469,1.94621 1.297469,1.94621 l -1.297469,13.29906 5.189876,-1.62184 c 0,0 4.216775,-1.29747 5.514244,3.24367 1.297469,4.54114 1.297469,4.86551 1.297469,4.86551 l 2.270571,-5.83861 2.594938,2.91931 h 4.216775 l -3.56804,4.21677 -0.973102,7.13608 -4.541142,-0.64873 -0.973102,3.24367 -8.433549,2.27057 -2.270571,4.54114 -4.541142,-2.27057 -3.56804,2.91931 -9.406651,-0.64874 c 0,0 2.270571,3.24368 4.865509,3.56804 2.594938,0.32437 2.594938,0.32437 2.594938,0.32437 l 22.70571,-2.59494 v -1.9462 l 3.243673,-1.29747 c 0,0 -5.189877,-3.24367 -0.324368,-2.59494 4.86551,0.64874 4.86551,0.64874 4.86551,0.64874 0,0 -2.594939,-4.21678 1.297469,-4.86551 3.892407,-0.64874 3.892407,-0.64874 3.892407,-0.64874 l 3.892408,-4.21677 2.594938,1.9462 1.946204,-6.81171 h 3.243672 l -0.648734,-2.27057 -3.56804,-0.97311 8.109182,-7.13608 c 0,0 -6.487346,-2.59493 -1.946204,-1.9462 4.541142,0.64874 4.541142,0.9731 4.541142,0.9731 l -0.324367,-3.56804 h 3.892407 l 2.919306,-4.86551 5.838611,-0.32436 c 0,0 -3.243673,0.64873 -1.621837,2.59493 1.621837,1.94621 1.621837,1.94621 1.621837,1.94621 h -5.514244 c 0,0 -10.055386,10.37975 -6.487346,10.05538 3.56804,-0.32436 3.56804,-0.32436 3.56804,-0.32436 0,0 -7.460447,2.59493 -2.919305,3.56804 4.541142,0.9731 4.541142,0.64873 4.541142,0.64873 l 9.731018,-6.48734 2.270571,-5.51425 -1.621836,-2.9193 c 0,0 -0.648735,2.59493 3.892405,0.9731 4.54114,-1.62184 4.54114,-1.62184 4.54114,-1.62184 0,0 -1.62183,8.43355 2.91931,6.16298 4.54114,-2.27057 4.54114,-2.27057 4.54114,-2.27057 l 2.27057,5.83861 c 0,0 2.59494,-4.86551 5.83861,-2.27057 3.24368,2.59494 3.24368,2.59494 3.24368,2.59494 l 3.56804,-1.62184 c 0,0 -5.51425,5.18988 1.29747,2.59494 6.81171,-2.59494 6.81171,-2.27057 6.81171,-2.27057 v 5.83861 l 2.59494,-1.62184 2.59494,2.59494 0.64873,2.27057 c 0,0 2.27057,1.29747 4.21677,2.59494 1.94621,1.29747 1.94621,1.29747 1.94621,1.29747 l 4.86551,-0.64873 -2.27057,4.21677 4.54114,10.37975 5.51424,1.62184 v -3.89241 l -4.54114,-3.24367 0.32437,-5.51424 3.89241,1.29746 0.32436,4.86551 3.89241,-6.16297 c 0,0 2.91931,4.8655 4.54114,6.16297 1.62184,1.29747 1.62184,1.29747 1.62184,1.29747 l 1.9462,3.56804 5.83861,1.62184 2.27057,11.02849 3.89241,-4.21678 -0.9731,-8.10918 -9.08228,-3.24367 -18.48894,-22.38135 -4.86551,-1.9462 -2.27057,4.86551 h 3.89241 l 7.78481,7.78482 -12.65032,-5.51425 1.9462,3.24367 -8.10918,-6.48734 -4.54114,-4.21678 -0.32437,-3.8924 -2.27057,-0.64874 -1.29747,2.59494 z"
         id="path66" />
      <path
         style="fill:none;stroke:#000000;stroke-opacity:1"
         d="m 168.34662,525.79937 c 0,0 -2.27057,3.8924 1.29747,7.13608 3.56804,3.24367 3.56804,2.9193 3.56804,2.9193 l 2.9193,0.32437 -1.62183,-2.91931 -0.64874,-2.59494 -2.9193,-0.64873 V 525.475 Z"
         id="path67" />
      <path
         style="fill:none;stroke:#000000;stroke-opacity:1"
         d="m 16.867099,478.11737 4.541142,6.16298 3.56804,-0.9731 -2.270571,-4.21677 z"
         id="path69" />
      <path
         style="fill:none;stroke:#000000;stroke-opacity:1"
         d="m 11.352855,447.95122 4.216775,1.9462 0.973101,2.91931 1.946204,0.9731 h 2.594938 l -1.946203,-3.24367 -0.973102,-0.32437 -0.648735,-2.59494 -4.865509,-2.59494 z"
         id="path70" />
    </g>
  </g>
</svg>
