<?xml version="1.0" encoding="UTF-8" standalone="no"?>
<!-- Created with Inkscape (http://www.inkscape.org/) -->

<svg
   width="210mm"
   height="297mm"
   viewBox="0 0 210 297"
   version="1.1"
   id="svg1"
   inkscape:version="1.3.2 (091e20e, 2023-11-25, custom)"
   sodipodi:docname="Florida.svg"
   inkscape:export-filename="Florida.png"
   inkscape:export-xdpi="96"
   inkscape:export-ydpi="96"
   xmlns:inkscape="http://www.inkscape.org/namespaces/inkscape"
   xmlns:sodipodi="http://sodipodi.sourceforge.net/DTD/sodipodi-0.dtd"
   xmlns="http://www.w3.org/2000/svg"
   xmlns:svg="http://www.w3.org/2000/svg">
  <sodipodi:namedview
     id="namedview1"
     pagecolor="#ffffff"
     bordercolor="#000000"
     borderopacity="0.25"
     inkscape:showpageshadow="2"
     inkscape:pageopacity="0.0"
     inkscape:pagecheckerboard="0"
     inkscape:deskcolor="#d1d1d1"
     inkscape:document-units="mm"
     inkscape:zoom="0.52738496"
     inkscape:cx="397.24303"
     inkscape:cy="561.25984"
     inkscape:window-width="1440"
     inkscape:window-height="830"
     inkscape:window-x="-6"
     inkscape:window-y="-6"
     inkscape:window-maximized="1"
     inkscape:current-layer="layer1" />
  <defs
     id="defs1" />
  <g
     inkscape:label="Layer 1"
     inkscape:groupmode="layer"
     id="layer1">
    <path
       style="fill:#ffffff;stroke:#000000;stroke-width:0.264583;stroke-opacity:1;fill-opacity:1"
       d="m 86.659331,141.73503 -0.772398,-3.00378 11.028148,-2.53175 2.016821,0.81531 10.942328,-1.1586 1.41607,0.51493 0.12873,-2.14555 0.60076,-0.60075 0.8153,0.64366 1.58772,-0.68657 -0.55785,1.9739 c 0,0 -0.47202,-0.12873 -0.42911,0.25747 0.0429,0.3862 0.0429,0.34329 0.0429,0.34329 l 0.25747,1.5448 0.90113,0.51493 -0.25746,-0.85822 -0.21456,-1.5448 0.3862,-0.30038 1.58771,3.30416 1.07278,1.07277 0.3862,1.67354 2.27428,2.05973 1.1586,3.21833 -1.50189,-2.83213 -0.64366,0.17164 4.07655,5.87882 c 0,0 -0.0858,0.64367 -0.0858,0.64367 v 0 l 1.5448,3.64744 -0.0858,2.40302 -0.72949,3.26125 0.25747,0.68657 -0.55785,1.931 c 0,0 -0.7724,-0.81531 -1.02986,-0.34329 -0.25747,0.47202 -0.25747,0.51494 -0.25747,0.51494 l -0.81531,0.55784 -0.55785,-0.47202 0.55785,-0.64367 -0.98696,-0.7724 -0.64366,-0.17164 -0.90114,-1.63062 -0.55784,0.12873 -1.28733,-0.72949 -0.0429,-1.1586 -1.24443,-0.90113 -0.12873,-0.98696 -0.72949,-0.81531 c 0,0 -0.0429,-1.1586 -0.21455,-0.85822 -0.17165,0.30038 -0.17165,0.34329 -0.17165,0.34329 l -0.3862,0.47202 -2.27429,-2.44593 -0.0429,-0.81531 0.42912,-0.94404 -0.7724,-0.94405 -0.55785,0.47202 -0.81531,-1.07277 -0.17164,-3.862 -0.81531,-1.50189 -3.13251,-1.41606 -0.55785,-1.67354 -1.11569,-0.64366 c 0,0 -1.11568,-1.11569 -1.97391,-0.30038 -0.85822,0.81531 -0.94404,1.28733 -0.94404,1.28733 l -1.845176,1.28733 -1.287333,-0.12873 -0.472022,0.64367 -1.330243,-1.50189 -0.472025,0.0858 v -0.72949 l -0.643665,-0.51493 -1.501888,0.47202 -0.986954,-0.25746 -0.858221,-0.68658 -2.102644,0.98695 -0.643668,-0.51493 -1.029864,0.0429 -0.08582,0.94404 z"
       id="path57" />
  </g>
</svg>
