<?xml version="1.0" encoding="UTF-8" standalone="no"?>
<!-- Created with Inkscape (http://www.inkscape.org/) -->

<svg
   width="210mm"
   height="297mm"
   viewBox="0 0 210 297"
   version="1.1"
   id="svg1"
   inkscape:version="1.3.2 (091e20e, 2023-11-25, custom)"
   sodipodi:docname="Georgia.svg"
   xmlns:inkscape="http://www.inkscape.org/namespaces/inkscape"
   xmlns:sodipodi="http://sodipodi.sourceforge.net/DTD/sodipodi-0.dtd"
   xmlns="http://www.w3.org/2000/svg"
   xmlns:svg="http://www.w3.org/2000/svg">
  <sodipodi:namedview
     id="namedview1"
     pagecolor="#ffffff"
     bordercolor="#000000"
     borderopacity="0.25"
     inkscape:showpageshadow="2"
     inkscape:pageopacity="0.0"
     inkscape:pagecheckerboard="0"
     inkscape:deskcolor="#d1d1d1"
     inkscape:document-units="mm"
     inkscape:zoom="0.52738496"
     inkscape:cx="397.24303"
     inkscape:cy="561.25984"
     inkscape:window-width="1440"
     inkscape:window-height="830"
     inkscape:window-x="-6"
     inkscape:window-y="-6"
     inkscape:window-maximized="1"
     inkscape:current-layer="layer1" />
  <defs
     id="defs1" />
  <g
     inkscape:label="Layer 1"
     inkscape:groupmode="layer"
     id="layer1">
    <path
       style="fill:none;stroke:#000000;stroke-width:0.264583;stroke-opacity:1"
       d="m 93.571938,138.7878 10.298662,-2.10265 0.0858,1.45898 1.63062,0.94404 1.24442,1.75936 2.36011,0.64366 2.10265,2.53176 2.23138,0.60075 0.17164,1.71645 2.40302,2.74631 0.47202,0.34329 c 0,0 -0.25747,1.28733 -0.21455,1.37315 0.0429,0.0858 0.0429,0.0858 0.0429,0.0858 0,0 -1.02987,0.3862 -0.7724,1.80227 0.25746,1.41606 0.25746,1.41606 0.25746,1.41606 l -0.51493,0.34329 0.68658,2.74631 -1.58771,0.47202 -0.7724,-0.60075 -0.55785,0.64367 -0.12873,2.14555 -1.33024,-0.47202 -11.02815,1.07277 -2.102644,-0.72948 0.386199,-2.05974 -0.514932,-1.24442 0.343286,-0.98695 -0.557842,-2.01682 0.772398,-1.11569 -1.458976,-2.01682 z"
       id="path56" />
  </g>
</svg>
