<?xml version="1.0" encoding="UTF-8" standalone="no"?>
<!-- Created with Inkscape (http://www.inkscape.org/) -->

<svg
   width="210mm"
   height="297mm"
   viewBox="0 0 210 297"
   version="1.1"
   id="svg1"
   inkscape:version="1.3.2 (091e20e, 2023-11-25, custom)"
   sodipodi:docname="Idaho.svg"
   xmlns:inkscape="http://www.inkscape.org/namespaces/inkscape"
   xmlns:sodipodi="http://sodipodi.sourceforge.net/DTD/sodipodi-0.dtd"
   xmlns="http://www.w3.org/2000/svg"
   xmlns:svg="http://www.w3.org/2000/svg">
  <sodipodi:namedview
     id="namedview1"
     pagecolor="#505050"
     bordercolor="#ffffff"
     borderopacity="1"
     inkscape:showpageshadow="0"
     inkscape:pageopacity="0"
     inkscape:pagecheckerboard="1"
     inkscape:deskcolor="#505050"
     inkscape:document-units="mm"
     inkscape:zoom="0.52738496"
     inkscape:cx="397.24303"
     inkscape:cy="560.31177"
     inkscape:window-width="1427"
     inkscape:window-height="817"
     inkscape:window-x="158"
     inkscape:window-y="171"
     inkscape:window-maximized="0"
     inkscape:current-layer="layer1" />
  <defs
     id="defs1" />
  <g
     inkscape:label="Layer 1"
     inkscape:groupmode="layer"
     id="layer1">
    <path
       style="fill:none;stroke:#000000;stroke-width:0.264583;stroke-opacity:1"
       d="m 138.78742,82.03474 -3.88386,-0.910282 -2.18468,15.899587 0.60686,1.031653 0.0607,1.456449 -1.51713,1.213713 -0.36412,2.79153 -1.57782,0.60685 v 1.94193 l 0.36411,0.12138 0.4248,0.72822 -1.15302,2.00262 -1.09234,8.07117 23.69614,4.40858 1.57046,-13.26498 -1.44909,-1.18121 -1.30321,1.54164 c 0,0 -1.23953,-0.373 -1.87916,-0.39322 -0.77694,-0.0246 -2.30814,0.33254 -2.30814,0.33254 l -2.54878,-2.4881 0.36411,-1.51714 -0.78891,-1.39577 -0.54617,-2.30604 -2.00262,0.12137 -0.18206,-1.213711 0.72823,-0.424799 -0.25316,-1.64892 0.67795,-2.174263 -1.94193,-1.759877 -2.30605,-3.155643 -0.12137,-4.915521 1.03166,-2.306047 z"
       id="path37"
       sodipodi:nodetypes="cccccccccccccccccaccccccccccccccc" />
  </g>
</svg>
