<?xml version="1.0" encoding="UTF-8" standalone="no"?>
<!-- Created with Inkscape (http://www.inkscape.org/) -->

<svg
   width="210mm"
   height="297mm"
   viewBox="0 0 210 297"
   version="1.1"
   id="svg1"
   inkscape:version="1.3.2 (091e20e, 2023-11-25, custom)"
   sodipodi:docname="Lousiana.svg"
   inkscape:export-filename="Louisiana.png"
   inkscape:export-xdpi="96"
   inkscape:export-ydpi="96"
   xmlns:inkscape="http://www.inkscape.org/namespaces/inkscape"
   xmlns:sodipodi="http://sodipodi.sourceforge.net/DTD/sodipodi-0.dtd"
   xmlns="http://www.w3.org/2000/svg"
   xmlns:svg="http://www.w3.org/2000/svg">
  <sodipodi:namedview
     id="namedview1"
     pagecolor="#505050"
     bordercolor="#ffffff"
     borderopacity="1"
     inkscape:showpageshadow="0"
     inkscape:pageopacity="0"
     inkscape:pagecheckerboard="1"
     inkscape:deskcolor="#505050"
     inkscape:document-units="mm"
     inkscape:zoom="0.51580387"
     inkscape:cx="397.43789"
     inkscape:cy="561.25984"
     inkscape:window-width="1427"
     inkscape:window-height="817"
     inkscape:window-x="0"
     inkscape:window-y="0"
     inkscape:window-maximized="0"
     inkscape:current-layer="layer1" />
  <defs
     id="defs1" />
  <g
     inkscape:label="Layer 1"
     inkscape:groupmode="layer"
     id="layer1">
    <path
       style="fill:#ffffff;stroke:#000000;stroke-width:0.264583;stroke-opacity:1;fill-opacity:1"
       d="m 96.957611,153.02935 -0.214555,-4.72022 0.858221,-1.931 -0.901134,-2.44593 -1.20151,-1.67353 -0.514932,-1.58771 -0.386199,-5.14933 13.087878,-1.75936 0.64367,3.26125 -0.51493,0.94404 0.42911,1.58771 -1.37316,1.931 -0.0858,2.87504 7.85273,-0.72949 c 0,0 0.34329,0.81531 0.3862,0.72949 0.0429,-0.0858 0.0429,-0.0858 0.0429,-0.0858 l -0.0429,1.80226 0.81531,0.30038 -0.0429,1.24442 -2.40302,-0.81531 -0.51494,0.68658 -1.11568,-0.42911 -0.47203,0.55784 0.85823,0.81531 -0.0858,0.7724 1.02987,0.34329 1.11569,-0.55784 v -0.85822 l 0.90113,-0.0429 0.21456,0.60076 0.60075,0.51493 0.98696,-0.7724 1.02986,0.3862 c 0,0 0.30038,0.0429 0.0429,0.64367 -0.25746,0.60075 -0.25746,0.60075 -0.25746,0.60075 0,0 -0.60076,-0.77239 -0.90114,-0.0858 -0.30037,0.68658 -0.30037,0.68658 -0.30037,0.68658 l 0.72949,0.64367 0.68657,0.30037 1.07278,1.11569 v 0.94405 l -0.94404,0.51493 -1.45898,-1.28733 -1.02987,-0.0858 -0.7724,-1.07278 -1.28733,-0.81531 -0.0429,0.68657 0.68658,0.85823 c 0,0 0.0429,1.28733 0,1.33024 -0.0429,0.0429 -0.0429,0 -0.0429,0 l -0.64366,0.7724 c 0,0 -1.67353,-0.55784 -1.71644,-0.55784 -0.0429,0 -0.0429,0.0429 -0.0429,0.0429 l -0.85822,1.37315 -1.58771,-0.94404 c 0,0 -0.55784,-1.80227 -0.25746,-2.27429 0.30038,-0.47202 -0.90114,-1.931 -0.90114,-1.931 l -0.81531,-0.0429 c 0,0 1.24442,1.28733 1.20151,1.50189 -0.0429,0.21455 -0.0429,0.21455 -0.0429,0.21455 l -0.17164,1.02987 -1.67353,-1.1586 -1.41607,-0.17164 c 0,0 -0.55784,0.55784 -0.60075,0.51493 -0.0429,-0.0429 -0.0429,-0.0429 -0.0429,-0.0429 v 1.33024 l -2.10264,-0.0858 c 0,0 -0.51493,-0.98696 -1.63062,-1.02987 -1.11569,-0.0429 -1.11569,-0.0429 -1.11569,-0.0429 z"
       id="path52" />
  </g>
</svg>
