<?xml version="1.0" encoding="UTF-8" standalone="no"?>
<!-- Created with Inkscape (http://www.inkscape.org/) -->

<svg
   width="210mm"
   height="297mm"
   viewBox="0 0 210 297"
   version="1.1"
   id="svg1"
   inkscape:version="1.3.2 (091e20e, 2023-11-25, custom)"
   sodipodi:docname="Maine.svg"
   xmlns:inkscape="http://www.inkscape.org/namespaces/inkscape"
   xmlns:sodipodi="http://sodipodi.sourceforge.net/DTD/sodipodi-0.dtd"
   xmlns="http://www.w3.org/2000/svg"
   xmlns:svg="http://www.w3.org/2000/svg">
  <sodipodi:namedview
     id="namedview1"
     pagecolor="#505050"
     bordercolor="#ffffff"
     borderopacity="1"
     inkscape:showpageshadow="0"
     inkscape:pageopacity="0"
     inkscape:pagecheckerboard="1"
     inkscape:deskcolor="#505050"
     inkscape:document-units="mm"
     inkscape:zoom="0.52738496"
     inkscape:cx="397.24303"
     inkscape:cy="561.25984"
     inkscape:window-width="1440"
     inkscape:window-height="830"
     inkscape:window-x="-6"
     inkscape:window-y="-6"
     inkscape:window-maximized="1"
     inkscape:current-layer="layer1" />
  <defs
     id="defs1" />
  <g
     inkscape:label="Layer 1"
     inkscape:groupmode="layer"
     id="layer1">
    <path
       style="fill:none;stroke:#000000;stroke-width:0.264583;stroke-opacity:1"
       d="m 97.25947,150.64718 1.183365,-1.33508 -0.485484,-1.00131 0.697884,-0.84959 -0.303427,-5.61341 0.819253,-4.12661 1.486789,0.75857 1.00131,-0.72823 1.15303,-1.09233 1.69919,0.0607 1.66885,2.85222 c 0,0 0.72334,2.53718 1.51713,3.5501 0.21362,0.27258 0.90922,-0.87941 1.60817,0.81925 0.0912,0.22167 2.00262,0.54617 2.00262,0.54617 l 1.24405,1.18337 c 0,0 -0.48548,-0.0607 -0.4248,0.54616 0.0607,0.60686 0.0607,0.6372 0.0607,0.6372 0,0 -2.53878,2.67205 -3.67147,3.25426 -0.13075,0.0672 -0.2124,1.41852 -0.2124,1.41852 -0.27101,-0.26779 0.45944,0.50363 -1.21371,-1.12268 l -0.45514,0.36411 0.4248,1.2744 -0.45514,1.21371 -0.97097,0.60685 -0.15171,1.00131 c -0.13718,0.19068 -0.82215,0.34535 -0.8496,0.36411 l -0.75857,0.72823 0.24275,0.54617 -0.66755,1.09233 -0.72822,2.54879 -0.39446,-0.15171 -1.00131,-0.91028 z"
       id="path21"
       sodipodi:nodetypes="cccccccccccssccscsccccccccccccccc" />
  </g>
</svg>
