<?xml version="1.0" encoding="UTF-8" standalone="no"?>
<!-- Created with Inkscape (http://www.inkscape.org/) -->

<svg
   width="210mm"
   height="297mm"
   viewBox="0 0 210 297"
   version="1.1"
   id="svg1"
   inkscape:version="1.3.2 (091e20e, 2023-11-25, custom)"
   sodipodi:docname="Minnesota.svg"
   xmlns:inkscape="http://www.inkscape.org/namespaces/inkscape"
   xmlns:sodipodi="http://sodipodi.sourceforge.net/DTD/sodipodi-0.dtd"
   xmlns="http://www.w3.org/2000/svg"
   xmlns:svg="http://www.w3.org/2000/svg">
  <sodipodi:namedview
     id="namedview1"
     pagecolor="#505050"
     bordercolor="#ffffff"
     borderopacity="1"
     inkscape:showpageshadow="0"
     inkscape:pageopacity="0"
     inkscape:pagecheckerboard="1"
     inkscape:deskcolor="#505050"
     inkscape:document-units="mm"
     inkscape:zoom="0.51580387"
     inkscape:cx="397.43789"
     inkscape:cy="561.25984"
     inkscape:window-width="1427"
     inkscape:window-height="817"
     inkscape:window-x="158"
     inkscape:window-y="196"
     inkscape:window-maximized="0"
     inkscape:current-layer="layer1" />
  <defs
     id="defs1" />
  <g
     inkscape:label="Layer 1"
     inkscape:groupmode="layer"
     id="layer1">
    <g
       id="g8"
       transform="matrix(0.26458333,0,0,0.26458333,-2.1945867,70.666005)">
      <g
         id="g9">
        <path
           style="fill:none;stroke:#000000;stroke-opacity:1"
           d="m 500.52633,53.699741 c -1.62485,1.573381 0.52997,6.600353 1.22383,6.674078 1.62661,0.172831 3.39913,-2.50833 3.34383,-4.331501 -0.0224,-0.738019 -0.82148,-1.292862 -1.45737,-1.668121 -0.91363,-0.539164 -2.34818,-1.412428 -3.11029,-0.674456 z"
           id="path4"
           sodipodi:nodetypes="asaaa" />
        <path
           style="fill:none;stroke:#000000;stroke-opacity:1"
           d="m 475.01895,63.768442 c 0,0 19.52071,-1.854757 24.61239,-1.118745 1.13778,0.164469 1.91159,1.37003 3.02491,1.656603 2.45439,0.631769 7.60316,0.02152 7.60316,0.02152 0,0 2.91,1.732345 4.52704,2.154106 2.04449,0.533249 4.28456,-0.130321 6.32478,0.419006 1.28399,0.345712 2.26988,1.514444 3.57471,1.770511 3.96418,0.777957 8.15138,-1.783892 12.08772,-0.875516 2.21988,0.512274 3.64164,3.231582 5.91113,3.430922 1.15355,0.101323 2.10556,-1.241414 3.26257,-1.193432 3.45557,0.143307 5.95732,4.315181 9.41559,4.358945 1.78103,0.02254 3.15205,-1.801979 4.90434,-2.121456 1.87946,-0.342664 2.05611,1.387601 3.2419,1.612627 3.56799,0.677099 8.0816,-1.282712 10.85428,-0.94138 1.88726,0.232331 5.59373,1.118744 5.59373,1.118744 l -18.34741,13.648684 -2.73651,5.623019 -8.45094,8.02567 -3.13248,7.38371 0.22374,7.60747 -6.26497,7.83121 4.02749,8.50246 -1.3425,5.36996 2.68499,6.26498 9.39745,3.57999 4.25123,5.81747 3.13249,0.67124 3.13248,3.13249 2.68499,-0.895 2.68499,6.48872 c 0,0 -25.78407,5.31636 -38.82731,6.99463 -13.09349,1.68474 -39.48482,3.07407 -39.48482,3.07407 l -0.89499,-36.02357 -5.81747,-3.80373 2.01374,-6.93622 -0.16718,-2.29896 -0.39553,-5.4584 -3.71804,-12.02429 0.39554,-10.758582 -4.19269,-8.622684 -3.00607,-4.271788 V 70.405398 Z"
           id="path5"
           sodipodi:nodetypes="csacaaaaaaasasccccccccccccccccacccccccccccc" />
      </g>
    </g>
  </g>
</svg>
