<?xml version="1.0" encoding="UTF-8" standalone="no"?>
<!-- Created with Inkscape (http://www.inkscape.org/) -->

<svg
   width="210mm"
   height="297mm"
   viewBox="0 0 210 297"
   version="1.1"
   id="svg1"
   inkscape:version="1.3.2 (091e20e, 2023-11-25, custom)"
   sodipodi:docname="Montana.svg"
   inkscape:export-filename="Montana.png"
   inkscape:export-xdpi="96"
   inkscape:export-ydpi="96"
   xmlns:inkscape="http://www.inkscape.org/namespaces/inkscape"
   xmlns:sodipodi="http://sodipodi.sourceforge.net/DTD/sodipodi-0.dtd"
   xmlns="http://www.w3.org/2000/svg"
   xmlns:svg="http://www.w3.org/2000/svg">
  <sodipodi:namedview
     id="namedview1"
     pagecolor="#505050"
     bordercolor="#ffffff"
     borderopacity="1"
     inkscape:showpageshadow="0"
     inkscape:pageopacity="0"
     inkscape:pagecheckerboard="1"
     inkscape:deskcolor="#505050"
     inkscape:document-units="mm"
     inkscape:zoom="0.52738496"
     inkscape:cx="397.24303"
     inkscape:cy="562.20792"
     inkscape:window-width="934"
     inkscape:window-height="817"
     inkscape:window-x="493"
     inkscape:window-y="0"
     inkscape:window-maximized="0"
     inkscape:current-layer="layer1" />
  <defs
     id="defs1" />
  <g
     inkscape:label="Layer 1"
     inkscape:groupmode="layer"
     id="layer1">
    <path
       style="fill:#ffffff;stroke:#000000;stroke-width:0.264583;stroke-opacity:1;fill-opacity:1"
       d="m 89.450864,144.88289 c 0,0 13.924216,2.39078 20.827116,3.23096 7.36435,0.89636 21.97465,1.97866 21.97465,1.97866 l -1.0656,20.60168 -26.87691,-2.36801 -0.0592,2.78241 -1.48,-1.3024 -1.30241,1.5392 c 0,0 -1.29318,-0.32764 -1.953171,-0.32476 -0.741405,0.003 -2.190843,0.38396 -2.190843,0.38396 l -2.486411,-2.36801 0.355201,-1.6576 -0.710401,-1.18401 -0.532802,-2.60481 -2.01281,0.2368 -0.296,-1.3024 0.769601,-0.4736 -0.414401,-1.53921 0.828805,-2.13121 -1.894409,-1.71681 -2.427208,-3.19681 0.0592,-4.91362 0.828802,-2.30881 z"
       id="path2"
       sodipodi:nodetypes="csccccccaccccccccccccccc" />
  </g>
</svg>
