<?xml version="1.0" encoding="UTF-8" standalone="no"?>
<!-- Created with Inkscape (http://www.inkscape.org/) -->

<svg
   width="210mm"
   height="297mm"
   viewBox="0 0 210 297"
   version="1.1"
   id="svg1"
   inkscape:version="1.3.2 (091e20e, 2023-11-25, custom)"
   sodipodi:docname="Oregon.svg"
   inkscape:export-filename="Oregon.png"
   inkscape:export-xdpi="96"
   inkscape:export-ydpi="96"
   xmlns:inkscape="http://www.inkscape.org/namespaces/inkscape"
   xmlns:sodipodi="http://sodipodi.sourceforge.net/DTD/sodipodi-0.dtd"
   xmlns="http://www.w3.org/2000/svg"
   xmlns:svg="http://www.w3.org/2000/svg">
  <sodipodi:namedview
     id="namedview1"
     pagecolor="#505050"
     bordercolor="#ffffff"
     borderopacity="1"
     inkscape:showpageshadow="0"
     inkscape:pageopacity="0"
     inkscape:pagecheckerboard="1"
     inkscape:deskcolor="#505050"
     inkscape:document-units="mm"
     inkscape:zoom="0.52738496"
     inkscape:cx="398.19111"
     inkscape:cy="562.20792"
     inkscape:window-width="1427"
     inkscape:window-height="817"
     inkscape:window-x="0"
     inkscape:window-y="0"
     inkscape:window-maximized="0"
     inkscape:current-layer="layer1" />
  <defs
     id="defs1" />
  <g
     inkscape:label="Layer 1"
     inkscape:groupmode="layer"
     id="layer1">
    <path
       style="fill:#ffffff;stroke:#000000;stroke-width:0.264583;stroke-opacity:1;fill-opacity:1"
       d="m 101.06254,131.09186 -0.0429,-1.67353 0.55785,-2.05974 -0.0858,-1.54479 1.02987,-0.98696 -0.0429,-1.33024 3.17542,-4.2482 0.0858,-2.40302 1.41607,-1.24443 0.25746,-1.71644 0.55785,-0.34329 -0.0429,-1.45897 0.72949,-2.3172 3.34706,2.01682 0.3862,3.0896 3.30415,-0.68658 1.71645,1.58771 1.50188,-0.64367 2.01683,1.11569 2.7463,0.0429 1.02987,0.51494 1.37316,-0.60076 1.931,0.85822 0.94404,-0.55784 2.3172,1.37315 2.23138,-0.0858 0.90113,1.58771 0.12873,1.41607 -1.5448,1.24442 -0.34329,2.74631 -1.58771,0.60075 -0.0858,1.88809 0.3862,0.17164 0.47202,0.81532 -1.1586,1.97391 -1.11569,8.11019 z"
       id="path38" />
  </g>
</svg>
