<?xml version="1.0" encoding="UTF-8" standalone="no"?>
<!-- Created with Inkscape (http://www.inkscape.org/) -->

<svg
   width="210mm"
   height="297mm"
   viewBox="0 0 210 297"
   version="1.1"
   id="svg1"
   inkscape:version="1.3.2 (091e20e, 2023-11-25, custom)"
   sodipodi:docname="SouthCarolina.svg"
   xmlns:inkscape="http://www.inkscape.org/namespaces/inkscape"
   xmlns:sodipodi="http://sodipodi.sourceforge.net/DTD/sodipodi-0.dtd"
   xmlns="http://www.w3.org/2000/svg"
   xmlns:svg="http://www.w3.org/2000/svg">
  <sodipodi:namedview
     id="namedview1"
     pagecolor="#ffffff"
     bordercolor="#000000"
     borderopacity="0.25"
     inkscape:showpageshadow="2"
     inkscape:pageopacity="0.0"
     inkscape:pagecheckerboard="0"
     inkscape:deskcolor="#d1d1d1"
     inkscape:document-units="mm"
     inkscape:zoom="0.52738496"
     inkscape:cx="397.24303"
     inkscape:cy="561.25984"
     inkscape:window-width="1440"
     inkscape:window-height="830"
     inkscape:window-x="-6"
     inkscape:window-y="-6"
     inkscape:window-maximized="1"
     inkscape:current-layer="layer1" />
  <defs
     id="defs1" />
  <g
     inkscape:label="Layer 1"
     inkscape:groupmode="layer"
     id="layer1">
    <path
       style="fill:none;stroke:#000000;stroke-width:0.264583;stroke-opacity:1"
       d="m 94.590094,143.8363 4.915522,-2.67016 3.944554,-0.27309 2.30605,1.09234 4.339,-1.60816 5.58307,3.88387 -1.39577,3.15564 -1.03165,0.27308 -0.8496,2.76119 -0.97097,0.091 -0.27308,1.51713 -1.42611,1.36543 c 0,0 -1.03165,-0.30343 -0.97096,-0.24275 0.0607,0.0607 0.0607,0.0607 0.0607,0.0607 l -0.24274,1.12268 -0.87994,-0.30343 c 0,0 0.30343,1.03166 0.0607,1.36543 -0.24274,0.33376 -0.24274,0.36411 -0.24274,0.36411 l -0.33378,0.8496 -0.45513,-0.33378 -2.39708,-2.82187 -0.24274,-1.63851 -2.15434,-0.60685 -2.123987,-2.51845 -2.397075,-0.69788 -1.213707,-1.69919 -1.577822,-0.94062 z"
       id="path53" />
  </g>
</svg>
