<?xml version="1.0" encoding="UTF-8" standalone="no"?>
<!-- Created with Inkscape (http://www.inkscape.org/) -->

<svg
   width="210mm"
   height="297mm"
   viewBox="0 0 210 297"
   version="1.1"
   id="svg1"
   inkscape:version="1.3.2 (091e20e, 2023-11-25, custom)"
   sodipodi:docname="Texas.svg"
   xmlns:inkscape="http://www.inkscape.org/namespaces/inkscape"
   xmlns:sodipodi="http://sodipodi.sourceforge.net/DTD/sodipodi-0.dtd"
   xmlns="http://www.w3.org/2000/svg"
   xmlns:svg="http://www.w3.org/2000/svg">
  <sodipodi:namedview
     id="namedview1"
     pagecolor="#505050"
     bordercolor="#ffffff"
     borderopacity="1"
     inkscape:showpageshadow="0"
     inkscape:pageopacity="0"
     inkscape:pagecheckerboard="1"
     inkscape:deskcolor="#505050"
     inkscape:document-units="mm"
     inkscape:zoom="0.52738496"
     inkscape:cx="398.19111"
     inkscape:cy="562.20792"
     inkscape:window-width="857"
     inkscape:window-height="817"
     inkscape:window-x="570"
     inkscape:window-y="0"
     inkscape:window-maximized="0"
     inkscape:current-layer="layer1" />
  <defs
     id="defs1" />
  <g
     inkscape:label="Layer 1"
     inkscape:groupmode="layer"
     id="layer1">
    <path
       style="fill:none;stroke:#000000;stroke-width:0.264583;stroke-opacity:1"
       d="m 103.62519,188.51188 0.4248,-0.84959 16.14233,0.48548 0.60686,-23.97075 12.92599,0.30343 v 9.34556 l 0.78892,0.72822 0.36411,-0.0607 0.91028,0.72823 2.12399,-0.18206 0.60685,0.97097 1.51714,0.91028 1.82056,-0.84959 2.60948,1.45645 1.03165,-0.30343 0.97097,0.66754 2.97358,-0.12137 1.82057,0.8496 2.12399,-1.45645 1.75987,0.18205 1.03166,-0.4248 3.09496,1.82057 1.39576,-0.60686 0.66754,0.66754 0.54617,7.94979 0.54617,1.51714 1.15302,1.57782 0.91028,2.4881 -0.84959,2.06331 0.24274,4.67278 -3.7625,2.00262 -0.91028,-1.69919 -0.8496,0.60685 0.0607,1.94194 -1.39577,0.66753 -0.0607,1.21371 -1.75988,1.45645 -1.69919,0.4248 -2.18468,-0.30342 0.24274,1.33508 -1.57782,0.0607 -0.60685,1.75988 -2.00262,-0.0607 c 0,0 1.39576,1.33508 0.66754,1.6992 -0.72823,0.36411 -0.72823,0.42479 -0.72823,0.42479 l -0.78891,-0.12137 0.8496,1.21371 -0.18206,0.8496 -1.57782,0.91028 c 0,0 0.8496,-0.0607 1.09234,0.72822 0.24274,0.78891 0.24274,0.72823 0.24274,0.72823 l -0.30343,0.78891 0.54617,1.03165 v 0.97097 l 0.91028,1.21371 0.24274,1.51714 0.54617,0.48548 c 0,0 -3.58997,-0.20335 -5.3544,-0.52397 -1.33458,-0.24252 -3.93047,-1.05385 -3.93047,-1.05385 l -2.9129,-6.97883 -1.39576,-0.8496 -5.94718,-8.79938 -2.42742,-1.82057 c 0,0 -0.66754,-0.84959 -2.54879,-0.30342 l -1.88124,0.54617 -1.51714,1.88124 -0.78891,1.75988 c 0,0 -3.7625,-2.9129 -3.88387,-2.12399 l -0.12137,0.78891 -3.45907,-2.79153 -0.18206,-2.0633 -2.73084,-4.49073 -1.2744,-0.30342 -3.09495,-4.1873 z"
       id="path50"
       sodipodi:nodetypes="cccccccccccccccccccccccccccccccccccccccccccscccccscccccccacccccscccsccccccc" />
  </g>
</svg>
