<?xml version="1.0" encoding="UTF-8" standalone="no"?>
<!-- Created with Inkscape (http://www.inkscape.org/) -->

<svg
   width="210mm"
   height="297mm"
   viewBox="0 0 210 297"
   version="1.1"
   id="svg1"
   inkscape:version="1.3.2 (091e20e, 2023-11-25, custom)"
   sodipodi:docname="Washington.svg"
   xmlns:inkscape="http://www.inkscape.org/namespaces/inkscape"
   xmlns:sodipodi="http://sodipodi.sourceforge.net/DTD/sodipodi-0.dtd"
   xmlns="http://www.w3.org/2000/svg"
   xmlns:svg="http://www.w3.org/2000/svg">
  <sodipodi:namedview
     id="namedview1"
     pagecolor="#505050"
     bordercolor="#ffffff"
     borderopacity="1"
     inkscape:showpageshadow="0"
     inkscape:pageopacity="0"
     inkscape:pagecheckerboard="1"
     inkscape:deskcolor="#505050"
     inkscape:document-units="mm"
     inkscape:zoom="0.52738496"
     inkscape:cx="396.29496"
     inkscape:cy="561.25984"
     inkscape:window-width="1269"
     inkscape:window-height="474"
     inkscape:window-x="73"
     inkscape:window-y="73"
     inkscape:window-maximized="0"
     inkscape:current-layer="layer1" />
  <defs
     id="defs1" />
  <g
     inkscape:label="Layer 1"
     inkscape:groupmode="layer"
     id="layer1">
    <path
       style="fill:none;stroke:#000000;stroke-width:0.264583;stroke-opacity:1"
       d="m 142.25748,132.00194 20.77928,5.15042 -2.30881,15.80647 -0.4144,-0.5328 -2.24961,0.0592 -2.24961,-1.2432 -0.888,0.4736 -2.01281,-0.8288 -1.36161,0.5328 -0.9472,-0.4736 -2.84161,-0.0592 -1.95361,-1.06561 -1.53921,0.59201 -1.6576,-1.59841 -3.31522,0.8288 -0.4144,-3.19681 -3.67041,-2.24961 -0.1184,-0.592 0.7696,-0.7696 -0.3552,-1.06561 0.7696,0.0592 0.1776,-0.6512 -0.5328,-0.5328 -0.4144,-0.1184 0.592,-3.13761 -1.0064,-2.60481 0.9472,-0.82881 5.28555,2.51896 0.72276,0.71981 0.0301,0.55005 -0.7696,0.9472 c 0,0 0.97428,0.68008 0.93332,1.17987 -0.0649,0.7913 -1.76212,1.60254 -1.76212,1.60254 l 0.6512,0.3552 1.71681,-1.5392 0.0592,-1.42081 1.1248,-0.1776 0.11841,-1.3616 -0.88801,-0.76961 0.592,-0.5328 -0.592,-1.1248 0.8288,-1.00641 z"
       id="path1"
       sodipodi:nodetypes="cccccccccccccccccccccccccccccccsccccccccccc" />
  </g>
</svg>
