<?xml version="1.0" encoding="UTF-8" standalone="no"?>
<!-- Created with Inkscape (http://www.inkscape.org/) -->

<svg
   width="210mm"
   height="297mm"
   viewBox="0 0 210 297"
   version="1.1"
   id="svg1"
   inkscape:version="1.3.2 (091e20e, 2023-11-25, custom)"
   sodipodi:docname="California.svg"
   inkscape:export-filename="California.png"
   inkscape:export-xdpi="96"
   inkscape:export-ydpi="96"
   xmlns:inkscape="http://www.inkscape.org/namespaces/inkscape"
   xmlns:sodipodi="http://sodipodi.sourceforge.net/DTD/sodipodi-0.dtd"
   xmlns="http://www.w3.org/2000/svg"
   xmlns:svg="http://www.w3.org/2000/svg">
  <sodipodi:namedview
     id="namedview1"
     pagecolor="#505050"
     bordercolor="#ffffff"
     borderopacity="1"
     inkscape:showpageshadow="0"
     inkscape:pageopacity="0"
     inkscape:pagecheckerboard="1"
     inkscape:deskcolor="#505050"
     inkscape:document-units="mm"
     inkscape:zoom="0.52738496"
     inkscape:cx="398.19111"
     inkscape:cy="562.20792"
     inkscape:window-width="1427"
     inkscape:window-height="817"
     inkscape:window-x="0"
     inkscape:window-y="0"
     inkscape:window-maximized="0"
     inkscape:current-layer="layer1" />
  <defs
     id="defs1" />
  <g
     inkscape:label="Layer 1"
     inkscape:groupmode="layer"
     id="layer1">
    <path
       style="fill:#ffffff;stroke:#000000;stroke-width:0.264583;stroke-opacity:1;fill-opacity:1"
       d="m 160.94209,117.36135 16.56713,4.30867 -3.39839,15.77821 19.11592,26.15543 2.0633,4.91552 -1.45645,1.15302 -0.4248,1.94194 -1.39576,1.82056 0.36411,2.18468 -0.97096,0.97096 -10.8627,-1.09233 -0.0607,-0.97097 -0.48548,-0.8496 -0.18206,-2.79153 -2.0633,-2.42742 -1.75988,-0.97096 -1.09234,-1.63851 -1.82056,-0.60685 c 0,0 -1.69919,-3.45907 -1.94193,-2.97359 -0.24274,0.48548 -0.24274,0.48548 -0.24274,0.48548 l -1.33508,-0.18205 -2.60948,-1.94194 -0.48548,-1.15302 0.91028,-1.2744 -0.24274,-1.09233 c 0,0 -1.03165,-2.42742 -1.15303,-2.42742 -0.12137,0 -0.12137,0 -0.12137,0 l -0.97096,-0.36411 -0.0607,-2.67016 -1.63851,-3.03428 0.66754,-0.30342 v -1.15303 l -1.75987,-1.88125 -0.24275,-1.33508 0.48549,-1.51713 0.84959,0.24274 0.24275,-2.12399 -0.36412,-1.09234 -1.03165,1.15303 -1.94193,-0.30343 0.36411,-2.18468 -0.0607,-0.91028 -0.97096,-1.03165 c 0,0 -0.78891,-2.42742 -0.72823,-2.48811 0.0607,-0.0607 0.0607,-0.0607 0.0607,-0.0607 l 0.54617,-5.15826 -1.21371,-2.36674 0.0607,-1.45645 2.36673,-1.51713 -0.30342,-1.69919 0.60685,-1.03166 0.18206,-1.27439 -0.66754,-0.91028 z"
       id="path46" />
  </g>
</svg>
