<?xml version="1.0" encoding="UTF-8" standalone="no"?>
<!-- Created with Inkscape (http://www.inkscape.org/) -->

<svg
   width="210mm"
   height="297mm"
   viewBox="0 0 210 297"
   version="1.1"
   id="svg1"
   inkscape:version="1.3.2 (091e20e, 2023-11-25, custom)"
   sodipodi:docname="Kentucky.svg"
   inkscape:export-filename="Kentucky.png"
   inkscape:export-xdpi="96"
   inkscape:export-ydpi="96"
   xmlns:inkscape="http://www.inkscape.org/namespaces/inkscape"
   xmlns:sodipodi="http://sodipodi.sourceforge.net/DTD/sodipodi-0.dtd"
   xmlns="http://www.w3.org/2000/svg"
   xmlns:svg="http://www.w3.org/2000/svg">
  <sodipodi:namedview
     id="namedview1"
     pagecolor="#505050"
     bordercolor="#ffffff"
     borderopacity="1"
     inkscape:showpageshadow="0"
     inkscape:pageopacity="0"
     inkscape:pagecheckerboard="1"
     inkscape:deskcolor="#505050"
     inkscape:document-units="mm"
     inkscape:zoom="0.52738496"
     inkscape:cx="397.24303"
     inkscape:cy="561.25984"
     inkscape:window-width="1440"
     inkscape:window-height="830"
     inkscape:window-x="-6"
     inkscape:window-y="-6"
     inkscape:window-maximized="1"
     inkscape:current-layer="layer1" />
  <defs
     id="defs1" />
  <g
     inkscape:label="Layer 1"
     inkscape:groupmode="layer"
     id="layer1">
    <path
       style="fill:#ffffff;stroke:#000000;stroke-width:0.264583;stroke-opacity:1;fill-opacity:1"
       d="m 94.83304,149.68445 1.716442,-0.7295 0.772401,0.7295 2.40302,-1.20152 0.343287,-0.42911 0.85823,0.3862 -0.12874,-1.75935 1.24442,0.72949 1.88809,-2.01682 0.12873,-2.05974 0.51494,0.42911 2.87504,-1.33024 -0.72949,-1.37316 0.72949,-0.77239 1.71644,0.94404 c 0,0 3.21926,-0.0491 4.73472,-0.52308 0.36732,-0.11488 1.01537,-0.5497 1.01537,-0.5497 l 0.42911,0.85822 0.64367,0.0429 0.85822,0.55785 0.81531,3.00378 1.71644,0.90113 v 1.63062 l -1.63062,1.28733 -0.30038,1.63062 -2.57466,2.3172 -18.108482,3.34707 -1.802265,1.20151 -3.690352,0.12873 -0.386202,-1.02987 0.08582,-2.44593 2.488843,0.60076 v -1.41607 l 1.416065,-0.64366 z"
       id="path30"
       sodipodi:nodetypes="cccccccccccccccaccccccccccccccccccc" />
  </g>
</svg>
