<?xml version="1.0" encoding="UTF-8" standalone="no"?>
<!-- Created with Inkscape (http://www.inkscape.org/) -->

<svg
   width="210mm"
   height="297mm"
   viewBox="0 0 210 297"
   version="1.1"
   id="svg1"
   inkscape:version="1.3.2 (091e20e, 2023-11-25, custom)"
   sodipodi:docname="Michigan.svg"
   xmlns:inkscape="http://www.inkscape.org/namespaces/inkscape"
   xmlns:sodipodi="http://sodipodi.sourceforge.net/DTD/sodipodi-0.dtd"
   xmlns="http://www.w3.org/2000/svg"
   xmlns:svg="http://www.w3.org/2000/svg">
  <sodipodi:namedview
     id="namedview1"
     pagecolor="#505050"
     bordercolor="#ffffff"
     borderopacity="1"
     inkscape:showpageshadow="0"
     inkscape:pageopacity="0"
     inkscape:pagecheckerboard="1"
     inkscape:deskcolor="#505050"
     inkscape:document-units="mm"
     inkscape:zoom="0.51580387"
     inkscape:cx="397.43789"
     inkscape:cy="561.25984"
     inkscape:window-width="1427"
     inkscape:window-height="817"
     inkscape:window-x="147"
     inkscape:window-y="147"
     inkscape:window-maximized="0"
     inkscape:current-layer="layer1" />
  <defs
     id="defs1" />
  <g
     inkscape:label="Layer 1"
     inkscape:groupmode="layer"
     id="layer1">
    <g
       id="g72"
       transform="matrix(0.26458333,0,0,0.26458333,-24.242847,50.937415)">
      <path
         style="fill:none;stroke:#000000;stroke-opacity:1"
         d="m 576.37722,103.59575 5.14622,-6.488719 2.79686,-0.447498 5.14623,-4.586853 2.57311,-0.447498 2.34936,-2.461238 c 0,0 0.19843,-2.70904 0.94156,-3.769868 0.81511,-1.163574 2.30399,-1.671326 3.53342,-2.383227 0.82453,-0.477442 3.26199,0.148667 4.38891,-0.393913 1.57551,-0.758563 0.70948,-2.622156 1.76419,-2.626697 0.36371,-0.0016 3.39323,-0.09577 3.63732,0.344238 0.33207,0.598598 -2.18296,1.781376 -2.18296,1.781376 l 0.42543,2.441773 -3.55791,0.466963 -1.78999,2.908736 c 0,0 -0.91271,4.248139 0.55292,5.178498 0.70156,0.445345 2.35581,-0.815394 2.35581,-0.815394 0,0 5.84363,-0.761719 8.43311,0.337924 1.78679,0.758776 4.20871,4.02518 4.20871,4.02518 l 11.07557,1.00687 c 0,0 1.55682,-3.658873 5.36617,-5.45462 3.65076,-1.720984 9.17751,-1.593471 9.17751,-1.593471 0,0 3.14155,-5.359716 5.05849,-4.267799 1.81176,1.032009 -2.45041,4.642303 -1.03101,6.169665 3.2143,3.458788 8.24885,-0.798442 9.95683,-1.454368 3.90068,-1.498008 2.5733,3.760834 4.47498,3.579983 5.85397,-0.556719 3.50676,4.943318 2.01374,4.363104 -7.31161,-2.841417 -4.71538,1.286763 -7.0481,2.013743 -2.48572,0.77466 -2.73397,-1.540871 -4.25122,-1.789994 -3.02557,-0.496779 -8.74572,0.05192 -9.17371,0.671246 -3.52308,5.098088 -4.55598,4.296988 -6.26497,4.586858 -1.44702,0.24544 -1.11412,2.75594 -2.01374,3.9156 -6.69259,8.62707 -2.5542,-0.18573 -3.80373,-0.4475 -4.1147,-0.86201 -2.94199,4.63186 -3.91561,3.24436 -3.33572,-4.75371 -2.33232,-0.38912 -2.57311,0.4475 -1.03274,3.58823 -7.27184,9.17371 -7.27184,9.17371 l -3.35623,-4.13936 2.12561,-2.90873 -4.02748,0.11187 -2.34936,-3.46811 -23.26989,-1.23062 z"
         id="path6"
         sodipodi:nodetypes="ccccccassssccccacaccscasssssassssssccccccc" />
      <path
         style="fill:none;stroke:#000000;stroke-opacity:1"
         d="m 642.19216,185.90189 c 0,0 3.44588,-10.07404 3.8588,-15.32591 0.34088,-4.3356 0.38339,-8.93204 -1.16916,-12.99446 -1.1974,-3.13315 -4.40618,-6.04539 -6.01214,-8.06893 -0.94295,-1.18813 1.25115,-2.90305 1.10929,-4.41325 -0.15275,-1.62622 -1.97607,-2.81546 -2.05858,-4.44676 -0.10132,-2.00304 1.79885,-3.68849 1.96384,-5.68729 0.11464,-1.38885 -0.63521,-2.72986 -0.69812,-4.122 -0.27943,-6.18393 3.94167,-9.69164 7.27786,-13.60644 1.97721,-2.32013 7.27786,-5.5375 7.27786,-5.5375 0,0 -1.18534,-0.30333 -1.42393,-0.79107 -1.91524,-3.91517 2.62629,-6.60673 3.3225,-7.11965 0.7436,-0.54784 2.3667,3.61645 7.11965,1.58215 2.27254,-0.97267 3.35236,2.85204 7.27786,1.42393 2.48247,-0.90313 1.55418,2.62573 7.11965,3.48071 2.27573,0.3496 -2.75979,4.19571 2.37321,6.48679 6.04138,2.69652 -0.60646,14.14316 -3.00607,19.61858 -0.44505,1.01552 -0.15821,3.32251 -0.15821,3.32251 l 3.95535,0.63285 c 0,0 2.81301,-5.54628 5.06286,-7.59429 1.06257,-0.96724 2.22152,0.46443 3.03437,0.3796 2.15561,-0.22496 3.34486,0.13656 4.87635,1.36076 1.79119,1.43179 2.05906,4.38116 2.97295,6.56455 0.9666,2.30933 2.5404,3.87726 3.0392,6.25082 0.88963,4.23334 2.24691,9.48905 -0.31643,12.97357 -3.05458,4.15229 -8.55353,4.93442 -6.645,7.75251 3.48032,5.13895 -1.42393,8.54358 -1.42393,8.54358 l -21.04251,6.48679 -0.47465,-2.53143 z"
         id="path9"
         sodipodi:nodetypes="caasaaasacsssssssccssssssscccc" />
    </g>
  </g>
</svg>
