<?xml version="1.0" encoding="UTF-8" standalone="no"?>
<!-- Created with Inkscape (http://www.inkscape.org/) -->

<svg
   width="210mm"
   height="297mm"
   viewBox="0 0 210 297"
   version="1.1"
   id="svg1"
   inkscape:version="1.3.2 (091e20e, 2023-11-25, custom)"
   sodipodi:docname="NorthCarolina.svg"
   xmlns:inkscape="http://www.inkscape.org/namespaces/inkscape"
   xmlns:sodipodi="http://sodipodi.sourceforge.net/DTD/sodipodi-0.dtd"
   xmlns="http://www.w3.org/2000/svg"
   xmlns:svg="http://www.w3.org/2000/svg">
  <sodipodi:namedview
     id="namedview1"
     pagecolor="#ffffff"
     bordercolor="#000000"
     borderopacity="0.25"
     inkscape:showpageshadow="2"
     inkscape:pageopacity="0.0"
     inkscape:pagecheckerboard="0"
     inkscape:deskcolor="#d1d1d1"
     inkscape:document-units="mm"
     inkscape:zoom="0.52738496"
     inkscape:cx="397.24303"
     inkscape:cy="561.25984"
     inkscape:window-width="1440"
     inkscape:window-height="830"
     inkscape:window-x="-6"
     inkscape:window-y="-6"
     inkscape:window-maximized="1"
     inkscape:current-layer="layer1" />
  <defs
     id="defs1" />
  <g
     inkscape:label="Layer 1"
     inkscape:groupmode="layer"
     id="layer1">
    <path
       style="fill:none;stroke:#000000;stroke-width:0.264583;stroke-opacity:1"
       d="m 96.881178,146.30343 23.815652,-7.50944 2.74631,3.17542 -2.61758,-2.48884 0.42912,1.75935 -0.34329,0.12873 -0.64367,0.68658 c 0,0 -0.72949,-0.0858 -0.72949,-0.12873 0,-0.0429 0,0 0,0 l -0.3862,0.51493 -0.7724,-0.60075 -0.55784,0.17164 0.85822,1.5448 c 0,0 0.96276,-0.47916 1.4856,-0.51382 0.42789,-0.0284 1.26071,0.25635 1.26071,0.25635 l 0.34329,-0.94404 0.72949,0.25747 0.42911,1.54479 -1.02987,1.58772 -0.98695,0.38619 -0.72949,-0.64366 -0.85822,0.90113 -0.7724,-0.17164 -0.30038,0.72949 0.3862,0.30037 1.37315,0.0429 c 0,0 -0.0347,0.86097 -0.30037,1.1586 -0.29125,0.32627 -1.28313,0.0373 -1.22469,0.47074 0.0587,0.43504 1.31051,0.13002 1.31051,0.13002 l 0.64367,-0.60076 c 0,0 0.72981,-0.47989 0.98695,-0.25746 0.29389,0.2542 -0.12873,1.1586 -0.12873,1.1586 l -1.1586,0.90113 -1.24442,0.17164 -2.53176,4.41985 -1.28733,1.50188 -1.80227,1.37316 -5.49262,-3.862 -4.37693,1.63062 -2.36011,-1.11569 -3.819083,0.25747 -5.063508,2.74631 -4.72022,0.90113 -0.729488,-0.98695 1.20151,-0.72949 0.257466,-1.33025 3.947819,-2.83213 0.386202,-1.50189 h 1.630622 l 0.815308,-1.54479 h 1.1586 l 0.944044,-0.7724 z"
       id="path39"
       sodipodi:nodetypes="cccccccscccccaccccccccccccaaccacccccccccccccccccccccc" />
  </g>
</svg>
