<?xml version="1.0" encoding="UTF-8" standalone="no"?>
<!-- Created with Inkscape (http://www.inkscape.org/) -->

<svg
   width="210mm"
   height="297mm"
   viewBox="0 0 210 297"
   version="1.1"
   id="svg1"
   inkscape:version="1.3.2 (091e20e, 2023-11-25, custom)"
   sodipodi:docname="Ohio.svg"
   xmlns:inkscape="http://www.inkscape.org/namespaces/inkscape"
   xmlns:sodipodi="http://sodipodi.sourceforge.net/DTD/sodipodi-0.dtd"
   xmlns="http://www.w3.org/2000/svg"
   xmlns:svg="http://www.w3.org/2000/svg">
  <sodipodi:namedview
     id="namedview1"
     pagecolor="#505050"
     bordercolor="#ffffff"
     borderopacity="1"
     inkscape:showpageshadow="0"
     inkscape:pageopacity="0"
     inkscape:pagecheckerboard="1"
     inkscape:deskcolor="#505050"
     inkscape:document-units="mm"
     inkscape:zoom="0.52738496"
     inkscape:cx="397.24303"
     inkscape:cy="561.25984"
     inkscape:window-width="1440"
     inkscape:window-height="830"
     inkscape:window-x="-6"
     inkscape:window-y="-6"
     inkscape:window-maximized="1"
     inkscape:current-layer="layer1" />
  <defs
     id="defs1" />
  <g
     inkscape:label="Layer 1"
     inkscape:groupmode="layer"
     id="layer1">
    <path
       style="fill:none;stroke:#000000;stroke-width:0.264583;stroke-opacity:1"
       d="m 95.93797,144.17928 5.49262,-1.71645 c 0,0 0.90338,0.78531 1.46451,0.8592 0.32171,0.0424 0.93851,-0.25844 0.93851,-0.25844 l 0.80049,0.80935 0.65849,-0.5948 c 0,0 1.34002,-0.28389 2.3172,-1.07277 1.56463,-1.26316 4.6344,-3.862 4.6344,-3.862 l 1.9739,6.47957 v 4.93478 l -0.51493,2.18846 -2.61757,1.5448 c 0,0 0.82284,0.92563 0.60075,1.37316 -0.0908,0.18294 -0.59711,1.42046 -0.59555,0.1439 5.3e-4,-0.36652 -0.7956,0.0935 -1.03507,0.37103 -0.19061,0.22086 -0.17164,0.85822 -0.17164,0.85822 l 0.38619,0.55785 -1.54479,1.88808 -0.98696,-0.68657 h -0.60076 c 0,0 -0.3286,-1.2084 -0.47202,-0.90114 -0.45476,0.97428 -5.75008,1.11569 -5.75008,1.11569 l -1.673536,-0.90113 z"
       id="path10"
       sodipodi:nodetypes="ccacccscccccasacccccsccc" />
  </g>
</svg>
