<?xml version="1.0" encoding="UTF-8" standalone="no"?>
<!-- Created with Inkscape (http://www.inkscape.org/) -->

<svg
   width="210mm"
   height="297mm"
   viewBox="0 0 210 297"
   version="1.1"
   id="svg1"
   inkscape:version="1.3.2 (091e20e, 2023-11-25, custom)"
   sodipodi:docname="WestVirginia.svg"
   xmlns:inkscape="http://www.inkscape.org/namespaces/inkscape"
   xmlns:sodipodi="http://sodipodi.sourceforge.net/DTD/sodipodi-0.dtd"
   xmlns="http://www.w3.org/2000/svg"
   xmlns:svg="http://www.w3.org/2000/svg">
  <sodipodi:namedview
     id="namedview1"
     pagecolor="#505050"
     bordercolor="#ffffff"
     borderopacity="1"
     inkscape:showpageshadow="0"
     inkscape:pageopacity="0"
     inkscape:pagecheckerboard="1"
     inkscape:deskcolor="#505050"
     inkscape:document-units="mm"
     inkscape:zoom="0.52738496"
     inkscape:cx="397.24303"
     inkscape:cy="561.25984"
     inkscape:window-width="1440"
     inkscape:window-height="830"
     inkscape:window-x="-6"
     inkscape:window-y="-6"
     inkscape:window-maximized="1"
     inkscape:current-layer="layer1" />
  <defs
     id="defs1" />
  <g
     inkscape:label="Layer 1"
     inkscape:groupmode="layer"
     id="layer1">
    <path
       style="fill:none;stroke:#000000;stroke-width:0.264583;stroke-opacity:1"
       d="m 101.38963,138.42079 1.69919,4.85483 0.12138,0.12137 3.39838,-0.72822 1.21371,1.57782 1.21371,-0.60685 0.48548,-0.36412 0.24274,-1.2137 1.82057,0.36411 1.09234,-1.21371 0.60685,-0.24275 0.60685,0.36412 0.48549,0.72823 -0.36411,0.97096 -0.97097,-0.36411 -0.97097,0.36411 v 0.97097 l -2.06331,2.9129 -0.24274,1.33508 -1.94193,1.21371 -1.33508,2.79153 -0.12137,3.03427 -4.00524,1.94193 -0.12137,1.21371 -1.57782,-0.84959 -0.48549,-0.12137 -1.456446,-1.45645 -0.242742,0.36411 -1.699194,-1.09234 -0.849596,-2.79153 1.699192,-1.82056 -0.485482,-0.72823 c 0,0 0.24274,-0.97097 0.24274,-0.97097 v 0 l 0.728226,-0.36411 0.364114,0.60686 0.606853,-0.48549 -0.242742,-1.21371 -0.364111,-0.36411 2.427418,-1.33508 0.72822,-2.30605 z"
       id="path76" />
  </g>
</svg>
