<?xml version="1.0" encoding="UTF-8" standalone="no"?>
<!-- Created with Inkscape (http://www.inkscape.org/) -->

<svg
   width="210mm"
   height="297mm"
   viewBox="0 0 210 297"
   version="1.1"
   id="svg1"
   inkscape:version="1.3.2 (091e20e, 2023-11-25, custom)"
   sodipodi:docname="Wisconsin.svg"
   inkscape:export-filename="Wisconsin.png"
   inkscape:export-xdpi="96"
   inkscape:export-ydpi="96"
   xmlns:inkscape="http://www.inkscape.org/namespaces/inkscape"
   xmlns:sodipodi="http://sodipodi.sourceforge.net/DTD/sodipodi-0.dtd"
   xmlns="http://www.w3.org/2000/svg"
   xmlns:svg="http://www.w3.org/2000/svg">
  <sodipodi:namedview
     id="namedview1"
     pagecolor="#505050"
     bordercolor="#ffffff"
     borderopacity="1"
     inkscape:showpageshadow="0"
     inkscape:pageopacity="0"
     inkscape:pagecheckerboard="1"
     inkscape:deskcolor="#505050"
     inkscape:document-units="mm"
     inkscape:zoom="0.51580387"
     inkscape:cx="397.43789"
     inkscape:cy="561.25984"
     inkscape:window-width="1427"
     inkscape:window-height="817"
     inkscape:window-x="0"
     inkscape:window-y="0"
     inkscape:window-maximized="0"
     inkscape:current-layer="layer1" />
  <defs
     id="defs1" />
  <g
     inkscape:label="Layer 1"
     inkscape:groupmode="layer"
     id="layer1">
    <path
       style="fill:#ffffff;stroke:#000000;stroke-width:0.264583;stroke-opacity:1;fill-opacity:1"
       d="m 54.727193,141.28758 2.051182,-0.12558 c 0,0 1.628256,-0.86583 1.800018,-0.79536 0.450901,0.185 0.396873,1.19345 0.586052,1.33955 0.195938,0.15131 2.302352,0 2.302352,0 l 2.595374,1.59071 6.15355,0.29303 0.669774,0.87908 1.046522,0.0419 -0.50233,0.79535 0.879078,1.04653 c 0,0 0.208167,1.27723 -0.209304,2.05118 -0.299492,0.55523 -0.151878,2.05473 -0.08372,2.13491 0.363527,0.42764 0.459089,-1.13381 0.962801,-1.38141 0.719092,-0.35348 1.833194,-3.13772 1.9256,-2.6791 0.493826,2.45089 -1.452269,2.76506 -1.297689,3.55818 0.542962,2.78584 -0.268221,2.68764 -0.50233,3.26514 -0.271494,0.66973 0.464683,0.49107 0.334889,3.09771 -0.0408,0.81931 0.845063,1.8327 0.991806,2.81747 0.08171,0.54833 -0.07087,1.66164 -0.07087,1.66164 l -11.093135,2.30235 -0.962801,-0.54419 -1.71533,-0.90355 -0.126548,-2.31974 -0.08372,-1.88374 -0.711634,-1.75815 -0.711636,0.33488 -0.837216,-0.85814 -0.837219,-0.14652 -1.130244,-1.56978 -2.469793,-0.9628 -0.711634,-1.65351 0.376748,-1.4442 -1.067453,-2.19769 1.632574,-2.05119 -0.04186,-2.07211 z"
       id="path7"
       sodipodi:nodetypes="ccsscccccccsssssssacccccccccccccccccc" />
  </g>
</svg>
